<svg xmlns="http://www.w3.org/2000/svg" viewBox="0 0 1200 630" fill="none">
  <defs>
    <linearGradient id="bg" x1="0" y1="0" x2="1200" y2="630" gradientUnits="userSpaceOnUse">
      <stop offset="0%" stop-color="#0F172A"/>
      <stop offset="100%" stop-color="#1E293B"/>
    </linearGradient>
    <linearGradient id="terminal-bg" x1="0" y1="0" x2="0" y2="1" gradientUnits="objectBoundingBox">
      <stop offset="0%" stop-color="#1E293B"/>
      <stop offset="100%" stop-color="#0F172A"/>
    </linearGradient>
    <filter id="glow-green">
      <feGaussianBlur in="SourceGraphic" stdDeviation="6" result="blur"/>
      <feComposite in="SourceGraphic" in2="blur" operator="over"/>
    </filter>
  </defs>

  <!-- Background -->
  <rect width="1200" height="630" fill="url(#bg)"/>

  <!-- Grid lines -->
  <g stroke="#1E293B" stroke-width="1" opacity="0.5">
    <line x1="0" y1="105" x2="1200" y2="105"/>
    <line x1="0" y1="210" x2="1200" y2="210"/>
    <line x1="0" y1="315" x2="1200" y2="315"/>
    <line x1="0" y1="420" x2="1200" y2="420"/>
    <line x1="0" y1="525" x2="1200" y2="525"/>
    <line x1="200" y1="0" x2="200" y2="630"/>
    <line x1="400" y1="0" x2="400" y2="630"/>
    <line x1="600" y1="0" x2="600" y2="630"/>
    <line x1="800" y1="0" x2="800" y2="630"/>
    <line x1="1000" y1="0" x2="1000" y2="630"/>
  </g>

  <!-- Left side: Branding -->
  <g transform="translate(80, 200)">
    <!-- Terminal arrow icon -->
    <polygon points="0,0 36,24 0,48" fill="#22C55E" filter="url(#glow-green)"/>
    <!-- Title -->
    <text x="56" y="20" font-family="JetBrains Mono, monospace" font-size="36" font-weight="700" fill="#F8FAFC">Torrent Search</text>
    <text x="56" y="56" font-family="JetBrains Mono, monospace" font-size="36" font-weight="700" fill="#22C55E" filter="url(#glow-green)">API</text>
    <!-- Tagline -->
    <text x="0" y="100" font-family="'IBM Plex Sans', sans-serif" font-size="22" fill="#94A3B8">Multi-source torrent search &amp; streaming backend</text>
    <!-- Badges -->
    <rect x="0" y="124" width="130" height="32" rx="6" fill="#22C55E" opacity="0.15"/>
    <text x="10" y="145" font-family="JetBrains Mono, monospace" font-size="14" fill="#22C55E">Node.js / Express</text>
    <rect x="144" y="124" width="98" height="32" rx="6" fill="#334155"/>
    <text x="154" y="145" font-family="JetBrains Mono, monospace" font-size="14" fill="#94A3B8">GPL-3.0</text>
    <rect x="256" y="124" width="106" height="32" rx="6" fill="#334155"/>
    <text x="266" y="145" font-family="JetBrains Mono, monospace" font-size="14" fill="#94A3B8">MongoDB</text>
    <rect x="376" y="124" width="72" height="32" rx="6" fill="#334155"/>
    <text x="386" y="145" font-family="JetBrains Mono, monospace" font-size="14" fill="#94A3B8">Redis</text>
  </g>

  <!-- Right side: Terminal window -->
  <rect x="660" y="80" width="480" height="480" rx="12" fill="#0F172A" stroke="#334155" stroke-width="1.5"/>
  <!-- Terminal titlebar -->
  <rect x="660" y="80" width="480" height="44" rx="12" fill="#1E293B"/>
  <rect x="660" y="100" width="480" height="24" fill="#1E293B"/>
  <!-- Traffic lights -->
  <circle cx="698" cy="102" r="7" fill="#EF4444"/>
  <circle cx="722" cy="102" r="7" fill="#FBBF24"/>
  <circle cx="746" cy="102" r="7" fill="#22C55E"/>
  <!-- Terminal title text -->
  <text x="870" y="108" font-family="JetBrains Mono, monospace" font-size="13" fill="#64748B" text-anchor="middle">torrent-search-api</text>

  <!-- Terminal content -->
  <g transform="translate(684, 152)" font-family="JetBrains Mono, monospace" font-size="13.5">
    <!-- Line 1: comment -->
    <text y="0" fill="#475569"># Search across 8 torrent sources</text>
    <!-- Line 2: curl command -->
    <text y="22" fill="#22C55E">$</text>
    <text x="18" y="22" fill="#F8FAFC">curl</text>
    <text x="52" y="22" fill="#94A3B8"> http://localhost:3001/api/</text>
    <!-- Line 3: continuation -->
    <text x="18" y="44" fill="#94A3B8">  torrents/search/piratebay/</text>
    <text x="18" y="66" fill="#22C55E">  ubuntu/1</text>
    <!-- Line 4: blank + JSON open -->
    <text y="100" fill="#F8FAFC">[</text>
    <text y="122" fill="#F8FAFC">  {</text>
    <text y="144" fill="#94A3B8">    "</text><text x="48" y="144" fill="#22C55E">Name</text><text x="84" y="144" fill="#94A3B8">": "</text><text x="108" y="144" fill="#F8FAFC">Ubuntu 24.04 LTS Desktop</text><text x="312" y="144" fill="#94A3B8">",</text>
    <text y="166" fill="#94A3B8">    "</text><text x="48" y="166" fill="#22C55E">Seeders</text><text x="108" y="166" fill="#94A3B8">": "</text><text x="132" y="166" fill="#F8FAFC">4291</text><text x="168" y="166" fill="#94A3B8">",</text>
    <text y="188" fill="#94A3B8">    "</text><text x="48" y="188" fill="#22C55E">Size</text><text x="84" y="188" fill="#94A3B8">": "</text><text x="108" y="188" fill="#F8FAFC">4.7 GB</text><text x="156" y="188" fill="#94A3B8">",</text>
    <text y="210" fill="#94A3B8">    "</text><text x="48" y="210" fill="#22C55E">Source</text><text x="96" y="210" fill="#94A3B8">": "</text><text x="120" y="210" fill="#F8FAFC">piratebay</text><text x="192" y="210" fill="#94A3B8">"</text>
    <text y="232" fill="#F8FAFC">  }</text>
    <text y="254" fill="#F8FAFC">]</text>
    <!-- Cursor blink -->
    <rect x="0" y="272" width="10" height="18" fill="#22C55E" opacity="0.9"/>
  </g>

  <!-- Bottom left: URL -->
  <text x="80" y="590" font-family="JetBrains Mono, monospace" font-size="16" fill="#475569">github.com/akshatsinghkaushik/stream-backend</text>
</svg>
